<svg width="338" height="472" viewBox="0 0 338 472" fill="none" xmlns="http://www.w3.org/2000/svg">
<rect x="0.375" y="0.375" width="337.25" height="471.25" rx="15.655" fill="white" stroke="black" stroke-width="0.75"/>
<path d="M168.989 273.162C140.625 273.755 127.906 304.541 148.913 328.447C151.959 331.935 152.273 333.936 146.694 330.586C132.551 321.469 105.432 327.463 104.043 355.336C102.328 389.679 152.106 399.574 161.452 363.055C161.946 359.202 165.194 359.29 164.411 364.76C163.619 378.549 159.413 391.501 153.521 404.117C152.896 405.457 153.864 407.007 155.343 407.007C164.451 407.007 174.181 407.007 182.658 407.007C184.137 407.007 185.104 405.457 184.479 404.117C178.587 391.501 174.381 378.549 173.589 364.76C172.806 359.29 176.054 359.202 176.548 363.055C185.894 399.574 235.672 389.679 233.957 355.336C232.568 327.463 205.449 321.469 191.306 330.586C185.726 333.936 186.041 331.934 189.087 328.447C210.087 304.549 197.384 273.777 169.041 273.162C169.025 273.162 168.999 273.162 168.983 273.162H168.989Z" fill="#40C61E"/>
<path d="M207.356 206H116.521V193.336L164.509 140.016C171.619 131.955 176.506 125.417 179.172 120.402C181.902 115.324 183.267 110.087 183.267 104.691C183.267 97.4551 181.077 91.52 176.697 86.8862C172.317 82.2524 166.477 79.9355 159.177 79.9355C150.417 79.9355 143.594 82.4429 138.706 87.4575C133.882 92.4087 131.47 99.3276 131.47 108.214H113.855C113.855 95.4556 117.949 85.1406 126.138 77.2695C134.39 69.3984 145.403 65.4629 159.177 65.4629C172.063 65.4629 182.251 68.8589 189.741 75.6509C197.231 82.3794 200.977 91.3613 200.977 102.597C200.977 116.244 192.28 132.494 174.888 151.347L137.754 191.623H207.356V206Z" fill="#40C61E"/>
</svg>
