<svg width="338" height="472" viewBox="0 0 338 472" fill="none" xmlns="http://www.w3.org/2000/svg">
<rect x="0.375" y="0.375" width="337.25" height="471.25" rx="15.655" fill="white" stroke="black" stroke-width="0.75"/>
<path d="M207.356 206H116.521V193.336L164.509 140.016C171.619 131.955 176.506 125.417 179.172 120.402C181.902 115.324 183.267 110.087 183.267 104.691C183.267 97.4551 181.077 91.52 176.697 86.8862C172.317 82.2524 166.477 79.9355 159.177 79.9355C150.417 79.9355 143.594 82.4429 138.706 87.4575C133.882 92.4087 131.47 99.3276 131.47 108.214H113.855C113.855 95.4556 117.949 85.1406 126.138 77.2695C134.39 69.3984 145.403 65.4629 159.177 65.4629C172.063 65.4629 182.251 68.8589 189.741 75.6509C197.231 82.3794 200.977 91.3613 200.977 102.597C200.977 116.244 192.28 132.494 174.888 151.347L137.754 191.623H207.356V206Z" fill="#D40000"/>
<path d="M169 424.006C169 424.006 152.933 398.562 131.259 368.648C116.759 348.629 105.167 326.952 104.089 308.281C102.853 286.953 114.554 265.556 135.737 264.519C156.908 263.482 165.502 280.964 169 295.377C172.498 280.964 181.092 263.482 202.263 264.519C223.446 265.556 235.147 286.953 233.911 308.281C232.833 326.952 221.241 348.629 206.741 368.648C185.067 398.562 169 424.006 169 424.006Z" fill="#D40000"/>
</svg>
