<svg width="338" height="472" viewBox="0 0 338 472" fill="none" xmlns="http://www.w3.org/2000/svg">
<rect x="0.375" y="0.375" width="337.25" height="471.25" rx="15.655" fill="white" stroke="black" stroke-width="0.75"/>
<path d="M207.356 206H116.521V193.336L164.509 140.016C171.619 131.955 176.506 125.417 179.172 120.402C181.902 115.324 183.267 110.087 183.267 104.691C183.267 97.4551 181.077 91.52 176.697 86.8862C172.317 82.2524 166.477 79.9355 159.177 79.9355C150.417 79.9355 143.594 82.4429 138.706 87.4575C133.882 92.4087 131.47 99.3276 131.47 108.214H113.855C113.855 95.4556 117.949 85.1406 126.138 77.2695C134.39 69.3984 145.403 65.4629 159.177 65.4629C172.063 65.4629 182.251 68.8589 189.741 75.6509C197.231 82.3794 200.977 91.3613 200.977 102.597C200.977 116.244 192.28 132.494 174.888 151.347L137.754 191.623H207.356V206Z" fill="black"/>
<path d="M169 250.961C137.868 293.814 104.558 318.475 104.004 351.908C103.819 362.734 109.883 381.135 128.877 384.657C141.2 386.931 158.167 377.304 158.521 357.745C158.467 353.851 162.793 353.953 162.752 359.288C162.172 374.716 157.112 392.678 148.609 407.299C162.203 407.299 175.797 407.299 189.391 407.299C180.888 392.678 175.828 374.716 175.248 359.288C175.207 353.953 179.533 353.851 179.479 357.745C179.833 377.304 196.8 386.931 209.123 384.657C228.117 381.135 234.181 362.734 233.996 351.908C233.442 318.475 200.132 293.814 169 250.961Z" fill="black"/>
</svg>
