<svg width="338" height="472" viewBox="0 0 338 472" fill="none" xmlns="http://www.w3.org/2000/svg">
<rect x="0.375" y="0.375" width="337.25" height="471.25" rx="15.655" fill="white" stroke="black" stroke-width="0.75"/>
<path d="M168.989 273.162C140.625 273.755 127.906 304.541 148.913 328.447C151.959 331.935 152.273 333.936 146.694 330.586C132.551 321.469 105.432 327.463 104.043 355.336C102.328 389.679 152.106 399.574 161.452 363.055C161.946 359.202 165.194 359.29 164.411 364.76C163.619 378.549 159.413 391.501 153.521 404.117C152.896 405.457 153.864 407.007 155.343 407.007C164.451 407.007 174.181 407.007 182.658 407.007C184.137 407.007 185.104 405.457 184.479 404.117C178.587 391.501 174.381 378.549 173.589 364.76C172.806 359.29 176.054 359.202 176.548 363.055C185.894 399.574 235.672 389.679 233.957 355.336C232.568 327.463 205.449 321.469 191.306 330.586C185.726 333.936 186.041 331.934 189.087 328.447C210.087 304.549 197.384 273.777 169.041 273.162C169.025 273.162 168.999 273.162 168.983 273.162H168.989Z" fill="#40C61E"/>
<path d="M142.134 128.114H155.369C163.684 127.987 170.222 125.797 174.983 121.544C179.744 117.292 182.124 111.547 182.124 104.311C182.124 88.0605 174.031 79.9355 157.844 79.9355C150.227 79.9355 144.133 82.1255 139.563 86.5054C135.056 90.8218 132.803 96.5664 132.803 103.739H115.188C115.188 92.7578 119.187 83.6489 127.185 76.4126C135.247 69.1128 145.466 65.4629 157.844 65.4629C170.92 65.4629 181.172 68.9224 188.599 75.8413C196.025 82.7603 199.739 92.377 199.739 104.691C199.739 110.722 197.771 116.562 193.835 122.211C189.963 127.86 184.663 132.082 177.935 134.875C185.552 137.287 191.423 141.286 195.549 146.872C199.739 152.458 201.833 159.281 201.833 167.343C201.833 179.784 197.771 189.655 189.646 196.955C181.521 204.254 170.952 207.904 157.939 207.904C144.927 207.904 134.326 204.381 126.138 197.335C118.013 190.29 113.95 180.99 113.95 169.438H131.66C131.66 176.737 134.041 182.577 138.801 186.957C143.562 191.337 149.941 193.527 157.939 193.527C166.445 193.527 172.952 191.305 177.458 186.862C181.965 182.418 184.219 176.039 184.219 167.724C184.219 159.662 181.743 153.473 176.792 149.157C171.841 144.84 164.7 142.619 155.369 142.492H142.134V128.114Z" fill="#40C61E"/>
</svg>
