<svg width="338" height="472" viewBox="0 0 338 472" fill="none" xmlns="http://www.w3.org/2000/svg">
<rect x="0.375" y="0.375" width="337.25" height="471.25" rx="15.655" fill="white" stroke="black" stroke-width="0.75"/>
<path d="M142.134 128.114H155.369C163.684 127.987 170.222 125.797 174.983 121.544C179.744 117.292 182.124 111.547 182.124 104.311C182.124 88.0605 174.031 79.9355 157.844 79.9355C150.227 79.9355 144.133 82.1255 139.563 86.5054C135.056 90.8218 132.803 96.5664 132.803 103.739H115.188C115.188 92.7578 119.187 83.6489 127.185 76.4126C135.247 69.1128 145.466 65.4629 157.844 65.4629C170.92 65.4629 181.172 68.9224 188.599 75.8413C196.025 82.7603 199.739 92.377 199.739 104.691C199.739 110.722 197.771 116.562 193.835 122.211C189.963 127.86 184.663 132.082 177.935 134.875C185.552 137.287 191.423 141.286 195.549 146.872C199.739 152.458 201.833 159.281 201.833 167.343C201.833 179.784 197.771 189.655 189.646 196.955C181.521 204.254 170.952 207.904 157.939 207.904C144.927 207.904 134.326 204.381 126.138 197.335C118.013 190.29 113.95 180.99 113.95 169.438H131.66C131.66 176.737 134.041 182.577 138.801 186.957C143.562 191.337 149.941 193.527 157.939 193.527C166.445 193.527 172.952 191.305 177.458 186.862C181.965 182.418 184.219 176.039 184.219 167.724C184.219 159.662 181.743 153.473 176.792 149.157C171.841 144.84 164.7 142.619 155.369 142.492H142.134V128.114Z" fill="#D40000"/>
<path d="M169 424.006C169 424.006 152.933 398.562 131.259 368.648C116.759 348.629 105.167 326.952 104.089 308.281C102.853 286.953 114.554 265.556 135.737 264.519C156.908 263.482 165.502 280.964 169 295.377C172.498 280.964 181.092 263.482 202.263 264.519C223.446 265.556 235.147 286.953 233.911 308.281C232.833 326.952 221.241 348.629 206.741 368.648C185.067 398.562 169 424.006 169 424.006Z" fill="#D40000"/>
</svg>
