<svg width="338" height="472" viewBox="0 0 338 472" fill="none" xmlns="http://www.w3.org/2000/svg">
<rect x="0.375" y="0.375" width="337.25" height="471.25" rx="15.655" fill="white" stroke="black" stroke-width="0.75"/>
<path d="M142.134 128.114H155.369C163.684 127.987 170.222 125.797 174.983 121.544C179.744 117.292 182.124 111.547 182.124 104.311C182.124 88.0605 174.031 79.9355 157.844 79.9355C150.227 79.9355 144.133 82.1255 139.563 86.5054C135.056 90.8218 132.803 96.5664 132.803 103.739H115.188C115.188 92.7578 119.187 83.6489 127.185 76.4126C135.247 69.1128 145.466 65.4629 157.844 65.4629C170.92 65.4629 181.172 68.9224 188.599 75.8413C196.025 82.7603 199.739 92.377 199.739 104.691C199.739 110.722 197.771 116.562 193.835 122.211C189.963 127.86 184.663 132.082 177.935 134.875C185.552 137.287 191.423 141.286 195.549 146.872C199.739 152.458 201.833 159.281 201.833 167.343C201.833 179.784 197.771 189.655 189.646 196.955C181.521 204.254 170.952 207.904 157.939 207.904C144.927 207.904 134.326 204.381 126.138 197.335C118.013 190.29 113.95 180.99 113.95 169.438H131.66C131.66 176.737 134.041 182.577 138.801 186.957C143.562 191.337 149.941 193.527 157.939 193.527C166.445 193.527 172.952 191.305 177.458 186.862C181.965 182.418 184.219 176.039 184.219 167.724C184.219 159.662 181.743 153.473 176.792 149.157C171.841 144.84 164.7 142.619 155.369 142.492H142.134V128.114Z" fill="black"/>
<path d="M169 250.961C137.868 293.814 104.558 318.475 104.004 351.908C103.819 362.734 109.883 381.135 128.877 384.657C141.2 386.931 158.167 377.304 158.521 357.745C158.467 353.851 162.793 353.953 162.752 359.288C162.172 374.716 157.112 392.678 148.609 407.299C162.203 407.299 175.797 407.299 189.391 407.299C180.888 392.678 175.828 374.716 175.248 359.288C175.207 353.953 179.533 353.851 179.479 357.745C179.833 377.304 196.8 386.931 209.123 384.657C228.117 381.135 234.181 362.734 233.996 351.908C233.442 318.475 200.132 293.814 169 250.961Z" fill="black"/>
</svg>
