<svg width="338" height="472" viewBox="0 0 338 472" fill="none" xmlns="http://www.w3.org/2000/svg">
<rect x="0.375" y="0.375" width="337.25" height="471.25" rx="15.655" fill="white" stroke="black" stroke-width="0.75"/>
<path d="M190.884 159.44H210.117V173.817H190.884V206H173.174V173.817H110.046V163.439L172.126 67.3672H190.884V159.44ZM130.042 159.44H173.174V91.4565L171.079 95.2651L130.042 159.44Z" fill="#D40000"/>
<path d="M169 424.006C169 424.006 152.933 398.562 131.259 368.648C116.759 348.629 105.167 326.952 104.089 308.281C102.853 286.953 114.554 265.556 135.737 264.519C156.908 263.482 165.502 280.964 169 295.377C172.498 280.964 181.092 263.482 202.263 264.519C223.446 265.556 235.147 286.953 233.911 308.281C232.833 326.952 221.241 348.629 206.741 368.648C185.067 398.562 169 424.006 169 424.006Z" fill="#D40000"/>
</svg>
