<svg width="338" height="472" viewBox="0 0 338 472" fill="none" xmlns="http://www.w3.org/2000/svg">
<rect x="0.375" y="0.375" width="337.25" height="471.25" rx="15.655" fill="white" stroke="black" stroke-width="0.75"/>
<path d="M190.884 159.44H210.117V173.817H190.884V206H173.174V173.817H110.046V163.439L172.126 67.3672H190.884V159.44ZM130.042 159.44H173.174V91.4565L171.079 95.2651L130.042 159.44Z" fill="black"/>
<path d="M169 250.961C137.868 293.814 104.558 318.475 104.004 351.908C103.819 362.734 109.883 381.135 128.877 384.657C141.2 386.931 158.167 377.304 158.521 357.745C158.467 353.851 162.793 353.953 162.752 359.288C162.172 374.716 157.112 392.678 148.609 407.299C162.203 407.299 175.797 407.299 189.391 407.299C180.888 392.678 175.828 374.716 175.248 359.288C175.207 353.953 179.533 353.851 179.479 357.745C179.833 377.304 196.8 386.931 209.123 384.657C228.117 381.135 234.181 362.734 233.996 351.908C233.442 318.475 200.132 293.814 169 250.961Z" fill="black"/>
</svg>
