<svg width="338" height="472" viewBox="0 0 338 472" fill="none" xmlns="http://www.w3.org/2000/svg">
<rect x="0.375" y="0.375" width="337.25" height="471.25" rx="15.655" fill="white" stroke="black" stroke-width="0.75"/>
<path d="M168.989 273.162C140.625 273.755 127.906 304.541 148.913 328.447C151.959 331.935 152.273 333.936 146.694 330.586C132.551 321.469 105.432 327.463 104.043 355.336C102.328 389.679 152.106 399.574 161.452 363.055C161.946 359.202 165.194 359.29 164.411 364.76C163.619 378.549 159.413 391.501 153.521 404.117C152.896 405.457 153.864 407.007 155.343 407.007C164.451 407.007 174.181 407.007 182.658 407.007C184.137 407.007 185.104 405.457 184.479 404.117C178.587 391.501 174.381 378.549 173.589 364.76C172.806 359.29 176.054 359.202 176.548 363.055C185.894 399.574 235.672 389.679 233.957 355.336C232.568 327.463 205.449 321.469 191.306 330.586C185.726 333.936 186.041 331.934 189.087 328.447C210.087 304.549 197.384 273.777 169.041 273.162C169.025 273.162 168.999 273.162 168.983 273.162H168.989Z" fill="#40C61E"/>
<path d="M124.614 136.493L131.66 67.3672H202.69V83.6489H146.609L142.419 121.449C149.211 117.45 156.924 115.451 165.557 115.451C178.188 115.451 188.218 119.64 195.645 128.019C203.071 136.334 206.785 147.602 206.785 161.82C206.785 176.103 202.913 187.37 195.168 195.622C187.488 203.81 176.729 207.904 162.891 207.904C150.64 207.904 140.642 204.508 132.898 197.716C125.154 190.924 120.742 181.53 119.663 169.533H136.326C137.405 177.467 140.229 183.466 144.8 187.528C149.37 191.527 155.4 193.527 162.891 193.527C171.079 193.527 177.49 190.734 182.124 185.148C186.821 179.562 189.17 171.85 189.17 162.011C189.17 152.743 186.631 145.316 181.553 139.73C176.538 134.081 169.841 131.256 161.462 131.256C153.782 131.256 147.751 132.938 143.372 136.303L138.706 140.111L124.614 136.493Z" fill="#40C61E"/>
</svg>
