<svg width="338" height="472" viewBox="0 0 338 472" fill="none" xmlns="http://www.w3.org/2000/svg">
<rect x="0.375" y="0.375" width="337.25" height="471.25" rx="15.655" fill="white" stroke="black" stroke-width="0.75"/>
<path d="M124.614 136.493L131.66 67.3672H202.69V83.6489H146.609L142.419 121.449C149.211 117.45 156.924 115.451 165.557 115.451C178.188 115.451 188.218 119.64 195.645 128.019C203.071 136.334 206.785 147.602 206.785 161.82C206.785 176.103 202.913 187.37 195.168 195.622C187.488 203.81 176.729 207.904 162.891 207.904C150.64 207.904 140.642 204.508 132.898 197.716C125.154 190.924 120.742 181.53 119.663 169.533H136.326C137.405 177.467 140.229 183.466 144.8 187.528C149.37 191.527 155.4 193.527 162.891 193.527C171.079 193.527 177.49 190.734 182.124 185.148C186.821 179.562 189.17 171.85 189.17 162.011C189.17 152.743 186.631 145.316 181.553 139.73C176.538 134.081 169.841 131.256 161.462 131.256C153.782 131.256 147.751 132.938 143.372 136.303L138.706 140.111L124.614 136.493Z" fill="#00A1D4"/>
<path d="M169 423.434C149.694 392.659 129.383 362.748 104 337.198C129.383 311.647 149.694 281.736 169 250.961C188.306 281.736 208.617 311.647 234 337.198C208.617 362.748 188.306 392.659 169 423.434Z" fill="#00A1D4"/>
</svg>
