<svg width="338" height="472" viewBox="0 0 338 472" fill="none" xmlns="http://www.w3.org/2000/svg">
<rect x="0.375" y="0.375" width="337.25" height="471.25" rx="15.655" fill="white" stroke="black" stroke-width="0.75"/>
<path d="M124.614 136.493L131.66 67.3672H202.69V83.6489H146.609L142.419 121.449C149.211 117.45 156.924 115.451 165.557 115.451C178.188 115.451 188.218 119.64 195.645 128.019C203.071 136.334 206.785 147.602 206.785 161.82C206.785 176.103 202.913 187.37 195.168 195.622C187.488 203.81 176.729 207.904 162.891 207.904C150.64 207.904 140.642 204.508 132.898 197.716C125.154 190.924 120.742 181.53 119.663 169.533H136.326C137.405 177.467 140.229 183.466 144.8 187.528C149.37 191.527 155.4 193.527 162.891 193.527C171.079 193.527 177.49 190.734 182.124 185.148C186.821 179.562 189.17 171.85 189.17 162.011C189.17 152.743 186.631 145.316 181.553 139.73C176.538 134.081 169.841 131.256 161.462 131.256C153.782 131.256 147.751 132.938 143.372 136.303L138.706 140.111L124.614 136.493Z" fill="black"/>
<path d="M169 250.961C137.868 293.815 104.558 318.475 104.004 351.908C103.819 362.734 109.883 381.135 128.877 384.657C141.2 386.932 158.167 377.304 158.521 357.746C158.467 353.852 162.793 353.953 162.752 359.289C162.172 374.716 157.112 392.678 148.609 407.3C162.203 407.3 175.797 407.3 189.391 407.3C180.888 392.678 175.828 374.716 175.248 359.289C175.207 353.953 179.533 353.852 179.479 357.746C179.833 377.304 196.8 386.932 209.123 384.657C228.117 381.135 234.181 362.734 233.996 351.908C233.442 318.475 200.132 293.815 169 250.961Z" fill="black"/>
</svg>
