<svg width="338" height="472" viewBox="0 0 338 472" fill="none" xmlns="http://www.w3.org/2000/svg">
<rect x="0.375" y="0.375" width="337.25" height="471.25" rx="15.655" fill="white" stroke="black" stroke-width="0.75"/>
<path d="M168.989 273.162C140.625 273.755 127.906 304.541 148.913 328.447C151.959 331.935 152.273 333.936 146.694 330.586C132.551 321.469 105.432 327.463 104.043 355.336C102.328 389.679 152.106 399.574 161.452 363.055C161.946 359.202 165.194 359.29 164.411 364.76C163.619 378.549 159.413 391.501 153.521 404.117C152.896 405.457 153.864 407.007 155.343 407.007C164.451 407.007 174.181 407.007 182.658 407.007C184.137 407.007 185.104 405.457 184.479 404.117C178.587 391.501 174.381 378.549 173.589 364.76C172.806 359.29 176.054 359.202 176.548 363.055C185.894 399.574 235.672 389.679 233.957 355.336C232.568 327.463 205.449 321.469 191.306 330.586C185.726 333.936 186.041 331.934 189.087 328.447C210.087 304.549 197.384 273.777 169.041 273.162C169.025 273.162 168.999 273.162 168.983 273.162H168.989Z" fill="#40C61E"/>
<path d="M185.647 67.272V82.2207H182.41C168.699 82.4746 157.781 86.5371 149.656 94.4082C141.531 102.279 136.833 113.356 135.564 127.638C142.864 119.259 152.83 115.07 165.461 115.07C177.522 115.07 187.139 119.323 194.312 127.829C201.548 136.334 205.166 147.316 205.166 160.773C205.166 175.055 201.262 186.481 193.455 195.05C185.71 203.62 175.3 207.904 162.224 207.904C148.958 207.904 138.198 202.826 129.946 192.67C121.694 182.45 117.568 169.311 117.568 153.251V146.491C117.568 120.973 122.996 101.486 133.85 88.0288C144.768 74.5083 160.986 67.5894 182.505 67.272H185.647ZM162.51 129.733C156.479 129.733 150.925 131.542 145.847 135.16C140.769 138.778 137.246 143.317 135.278 148.776V155.25C135.278 166.676 137.849 175.88 142.991 182.863C148.132 189.845 154.543 193.336 162.224 193.336C170.159 193.336 176.379 190.417 180.886 184.577C185.457 178.737 187.742 171.088 187.742 161.63C187.742 152.108 185.425 144.428 180.791 138.588C176.221 132.685 170.127 129.733 162.51 129.733Z" fill="#40C61E"/>
</svg>
