<svg width="338" height="472" viewBox="0 0 338 472" fill="none" xmlns="http://www.w3.org/2000/svg">
<rect x="0.375" y="0.375" width="337.25" height="471.25" rx="15.655" fill="white" stroke="black" stroke-width="0.75"/>
<path d="M185.647 67.272V82.2207H182.41C168.699 82.4746 157.781 86.5371 149.656 94.4082C141.531 102.279 136.833 113.356 135.564 127.638C142.864 119.259 152.83 115.07 165.461 115.07C177.522 115.07 187.139 119.323 194.312 127.829C201.548 136.334 205.166 147.316 205.166 160.773C205.166 175.055 201.262 186.481 193.455 195.05C185.71 203.62 175.3 207.904 162.224 207.904C148.958 207.904 138.198 202.826 129.946 192.67C121.694 182.45 117.568 169.311 117.568 153.251V146.491C117.568 120.973 122.996 101.486 133.85 88.0288C144.768 74.5083 160.986 67.5894 182.505 67.272H185.647ZM162.51 129.733C156.479 129.733 150.925 131.542 145.847 135.16C140.769 138.778 137.246 143.317 135.278 148.776V155.25C135.278 166.676 137.849 175.88 142.991 182.863C148.132 189.845 154.543 193.336 162.224 193.336C170.159 193.336 176.379 190.417 180.886 184.577C185.457 178.737 187.742 171.088 187.742 161.63C187.742 152.108 185.425 144.428 180.791 138.588C176.221 132.685 170.127 129.733 162.51 129.733Z" fill="#D40000"/>
<path d="M169 424.005C169 424.005 152.933 398.562 131.259 368.647C116.759 348.629 105.167 326.952 104.089 308.281C102.853 286.953 114.554 265.555 135.737 264.518C156.908 263.482 165.502 280.963 169 295.376C172.498 280.963 181.092 263.482 202.263 264.518C223.446 265.555 235.147 286.953 233.911 308.281C232.833 326.952 221.241 348.629 206.741 368.647C185.067 398.562 169 424.005 169 424.005Z" fill="#D40000"/>
</svg>
