<svg width="338" height="472" viewBox="0 0 338 472" fill="none" xmlns="http://www.w3.org/2000/svg">
<rect x="0.375" y="0.375" width="337.25" height="471.25" rx="15.655" fill="white" stroke="black" stroke-width="0.75"/>
<path d="M168.989 273.162C140.625 273.755 127.906 304.541 148.913 328.447C151.959 331.935 152.273 333.936 146.694 330.586C132.551 321.469 105.432 327.463 104.043 355.336C102.328 389.679 152.106 399.574 161.452 363.055C161.946 359.202 165.194 359.29 164.411 364.76C163.619 378.549 159.413 391.501 153.521 404.117C152.896 405.457 153.864 407.007 155.343 407.007C164.451 407.007 174.181 407.007 182.658 407.007C184.137 407.007 185.104 405.457 184.479 404.117C178.587 391.501 174.381 378.549 173.589 364.76C172.806 359.29 176.054 359.202 176.548 363.055C185.894 399.574 235.672 389.679 233.957 355.336C232.568 327.463 205.449 321.469 191.306 330.586C185.726 333.936 186.041 331.934 189.087 328.447C210.087 304.549 197.384 273.777 169.041 273.162C169.025 273.162 168.999 273.162 168.983 273.162H168.989Z" fill="#40C61E"/>
<path d="M200.596 103.549C200.596 110.468 198.755 116.625 195.073 122.021C191.455 127.416 186.536 131.637 180.315 134.684C187.551 137.794 193.264 142.333 197.454 148.3C201.707 154.267 203.833 161.027 203.833 168.581C203.833 180.578 199.771 190.131 191.646 197.24C183.584 204.35 172.952 207.904 159.749 207.904C146.418 207.904 135.723 204.35 127.661 197.24C119.663 190.067 115.664 180.514 115.664 168.581C115.664 161.09 117.695 154.33 121.758 148.3C125.884 142.27 131.565 137.699 138.801 134.589C132.644 131.542 127.788 127.321 124.233 121.925C120.679 116.53 118.901 110.404 118.901 103.549C118.901 91.8691 122.646 82.6016 130.137 75.7461C137.627 68.8906 147.498 65.4629 159.749 65.4629C171.936 65.4629 181.775 68.8906 189.265 75.7461C196.819 82.6016 200.596 91.8691 200.596 103.549ZM186.218 168.2C186.218 160.456 183.743 154.14 178.792 149.252C173.904 144.364 167.493 141.92 159.558 141.92C151.624 141.92 145.244 144.333 140.42 149.157C135.659 153.981 133.279 160.329 133.279 168.2C133.279 176.071 135.596 182.26 140.229 186.767C144.927 191.273 151.433 193.527 159.749 193.527C168 193.527 174.475 191.273 179.172 186.767C183.87 182.196 186.218 176.007 186.218 168.2ZM159.749 79.9355C152.83 79.9355 147.212 82.0938 142.896 86.4102C138.643 90.6631 136.516 96.4712 136.516 103.834C136.516 110.88 138.611 116.593 142.8 120.973C147.053 125.29 152.703 127.448 159.749 127.448C166.794 127.448 172.412 125.29 176.602 120.973C180.854 116.593 182.981 110.88 182.981 103.834C182.981 96.7886 180.791 91.0439 176.411 86.6006C172.031 82.1572 166.477 79.9355 159.749 79.9355Z" fill="#40C61E"/>
</svg>
