<svg width="338" height="472" viewBox="0 0 338 472" fill="none" xmlns="http://www.w3.org/2000/svg">
<rect x="0.375" y="0.375" width="337.25" height="471.25" rx="15.655" fill="white" stroke="black" stroke-width="0.75"/>
<path d="M200.596 103.549C200.596 110.468 198.755 116.625 195.073 122.021C191.455 127.416 186.536 131.637 180.315 134.684C187.551 137.794 193.264 142.333 197.454 148.3C201.707 154.267 203.833 161.027 203.833 168.581C203.833 180.578 199.771 190.131 191.646 197.24C183.584 204.35 172.952 207.904 159.749 207.904C146.418 207.904 135.723 204.35 127.661 197.24C119.663 190.067 115.664 180.514 115.664 168.581C115.664 161.09 117.695 154.33 121.758 148.3C125.884 142.27 131.565 137.699 138.801 134.589C132.644 131.542 127.788 127.321 124.233 121.925C120.679 116.53 118.901 110.404 118.901 103.549C118.901 91.8691 122.646 82.6016 130.137 75.7461C137.627 68.8906 147.498 65.4629 159.749 65.4629C171.936 65.4629 181.775 68.8906 189.265 75.7461C196.819 82.6016 200.596 91.8691 200.596 103.549ZM186.218 168.2C186.218 160.456 183.743 154.14 178.792 149.252C173.904 144.364 167.493 141.92 159.558 141.92C151.624 141.92 145.244 144.333 140.42 149.157C135.659 153.981 133.279 160.329 133.279 168.2C133.279 176.071 135.596 182.26 140.229 186.767C144.927 191.273 151.433 193.527 159.749 193.527C168 193.527 174.475 191.273 179.172 186.767C183.87 182.196 186.218 176.007 186.218 168.2ZM159.749 79.9355C152.83 79.9355 147.212 82.0938 142.896 86.4102C138.643 90.6631 136.516 96.4712 136.516 103.834C136.516 110.88 138.611 116.593 142.8 120.973C147.053 125.29 152.703 127.448 159.749 127.448C166.794 127.448 172.412 125.29 176.602 120.973C180.854 116.593 182.981 110.88 182.981 103.834C182.981 96.7886 180.791 91.0439 176.411 86.6006C172.031 82.1572 166.477 79.9355 159.749 79.9355Z" fill="#D40000"/>
<path d="M169 424.005C169 424.005 152.933 398.562 131.259 368.647C116.759 348.629 105.167 326.952 104.089 308.281C102.853 286.953 114.554 265.555 135.737 264.518C156.908 263.482 165.502 280.963 169 295.376C172.498 280.963 181.092 263.482 202.263 264.518C223.446 265.555 235.147 286.953 233.911 308.281C232.833 326.952 221.241 348.629 206.741 368.647C185.067 398.562 169 424.005 169 424.005Z" fill="#D40000"/>
</svg>
