<svg width="338" height="472" viewBox="0 0 338 472" fill="none" xmlns="http://www.w3.org/2000/svg">
<rect x="0.375" y="0.375" width="337.25" height="471.25" rx="15.655" fill="white" stroke="black" stroke-width="0.75"/>
<path d="M184.028 145.062C180.347 149.442 175.935 152.965 170.793 155.631C165.715 158.297 160.129 159.63 154.036 159.63C146.038 159.63 139.055 157.663 133.088 153.727C127.185 149.792 122.615 144.269 119.377 137.16C116.14 129.987 114.521 122.084 114.521 113.451C114.521 104.184 116.267 95.8364 119.758 88.4097C123.313 80.9829 128.328 75.3018 134.802 71.3662C141.277 67.4307 148.831 65.4629 157.463 65.4629C171.174 65.4629 181.965 70.6045 189.836 80.8877C197.771 91.1074 201.738 105.072 201.738 122.782V127.924C201.738 154.901 196.406 174.611 185.742 187.052C175.078 199.43 158.987 205.778 137.468 206.095H134.041V191.242H137.754C152.29 190.988 163.462 187.211 171.27 179.911C179.077 172.548 183.33 160.932 184.028 145.062ZM156.892 145.062C162.795 145.062 168.223 143.253 173.174 139.635C178.188 136.017 181.838 131.542 184.124 126.21V119.164C184.124 107.611 181.616 98.2168 176.602 90.9805C171.587 83.7441 165.239 80.126 157.559 80.126C149.814 80.126 143.594 83.1094 138.896 89.0762C134.199 94.9795 131.851 102.787 131.851 112.499C131.851 121.957 134.104 129.765 138.611 135.922C143.181 142.016 149.275 145.062 156.892 145.062Z" fill="#00A1D4"/>
<path d="M169 418.473C149.694 387.698 129.383 357.787 104 332.236C129.383 306.686 149.694 276.775 169 246C188.306 276.775 208.617 306.686 234 332.236C208.617 357.787 188.306 387.698 169 418.473Z" fill="#00A1D4"/>
</svg>
