<svg width="338" height="472" viewBox="0 0 338 472" fill="none" xmlns="http://www.w3.org/2000/svg">
<rect x="0.375" y="0.375" width="337.25" height="471.25" rx="15.655" fill="white" stroke="black" stroke-width="0.75"/>
<path d="M168.989 271C140.625 271.594 127.906 302.379 148.913 326.286C151.959 329.773 152.273 331.774 146.694 328.425C132.551 319.307 105.432 325.301 104.043 353.174C102.328 387.518 152.106 397.413 161.452 360.894C161.946 357.041 165.194 357.129 164.411 362.598C163.619 376.387 159.413 389.339 153.521 401.956C152.896 403.295 153.864 404.846 155.343 404.846C164.451 404.846 174.181 404.846 182.658 404.846C184.137 404.846 185.104 403.295 184.479 401.956C178.587 389.339 174.381 376.387 173.589 362.598C172.806 357.129 176.054 357.041 176.548 360.894C185.894 397.413 235.672 387.518 233.957 353.174C232.568 325.301 205.449 319.307 191.306 328.425C185.726 331.774 186.041 329.773 189.087 326.286C210.087 302.387 197.384 271.615 169.041 271.001C169.025 271 168.999 271 168.983 271H168.989Z" fill="#40C61E"/>
<path d="M197.644 169.818H139.563L126.519 206H107.666L160.605 67.3672H176.602L229.636 206H210.879L197.644 169.818ZM145.085 154.774H192.217L168.604 89.9331L145.085 154.774Z" fill="#40C61E"/>
</svg>
