<svg width="338" height="472" viewBox="0 0 338 472" fill="none" xmlns="http://www.w3.org/2000/svg">
<rect x="0.375" y="0.375" width="337.25" height="471.25" rx="15.655" fill="white" stroke="black" stroke-width="0.75"/>
<path d="M197.644 169.818H139.563L126.519 206H107.666L160.605 67.3672H176.602L229.636 206H210.879L197.644 169.818ZM145.085 154.774H192.217L168.604 89.9331L145.085 154.774Z" fill="#D40000"/>
<path d="M169 424.005C169 424.005 152.933 398.562 131.259 368.647C116.759 348.629 105.167 326.952 104.089 308.281C102.853 286.953 114.554 265.555 135.737 264.518C156.908 263.482 165.502 280.963 169 295.376C172.498 280.963 181.092 263.482 202.263 264.518C223.446 265.555 235.147 286.953 233.911 308.281C232.833 326.952 221.241 348.629 206.741 368.647C185.067 398.562 169 424.005 169 424.005Z" fill="#D40000"/>
</svg>
