<svg width="338" height="472" viewBox="0 0 338 472" fill="none" xmlns="http://www.w3.org/2000/svg">
<rect x="0.375" y="0.375" width="337.25" height="471.25" rx="15.655" fill="white" stroke="black" stroke-width="0.75"/>
<path d="M168.989 273.162C140.625 273.755 127.906 304.541 148.913 328.447C151.959 331.934 152.273 333.936 146.694 330.586C132.551 321.469 105.432 327.462 104.043 355.336C102.328 389.679 152.106 399.574 161.452 363.055C161.946 359.202 165.194 359.29 164.411 364.759C163.619 378.549 159.413 391.501 153.521 404.117C152.896 405.457 153.864 407.007 155.343 407.007C164.451 407.007 174.181 407.007 182.658 407.007C184.137 407.007 185.104 405.457 184.479 404.117C178.587 391.501 174.381 378.549 173.589 364.759C172.806 359.29 176.054 359.202 176.548 363.055C185.894 399.574 235.672 389.679 233.957 355.336C232.568 327.462 205.449 321.469 191.306 330.586C185.726 333.936 186.041 331.934 189.087 328.447C210.087 304.549 197.384 273.777 169.041 273.162C169.025 273.162 168.999 273.162 168.983 273.162H168.989Z" fill="#40C61E"/>
<path d="M179.172 67.3672H197.549V165.534C197.549 178.8 193.55 189.179 185.552 196.669C177.617 204.159 167.017 207.904 153.75 207.904C139.976 207.904 129.248 204.381 121.567 197.335C113.887 190.29 110.046 180.419 110.046 167.724H128.328C128.328 175.658 130.486 181.847 134.802 186.291C139.182 190.734 145.498 192.956 153.75 192.956C161.304 192.956 167.397 190.575 172.031 185.814C176.729 181.054 179.109 174.389 179.172 165.819V67.3672Z" fill="#40C61E"/>
</svg>
