<svg width="338" height="472" viewBox="0 0 338 472" fill="none" xmlns="http://www.w3.org/2000/svg">
<rect x="0.375" y="0.375" width="337.25" height="471.25" rx="15.655" fill="white" stroke="black" stroke-width="0.75"/>
<path d="M179.172 67.3672H197.549V165.534C197.549 178.8 193.55 189.179 185.552 196.669C177.617 204.159 167.017 207.904 153.75 207.904C139.976 207.904 129.248 204.381 121.567 197.335C113.887 190.29 110.046 180.419 110.046 167.724H128.328C128.328 175.658 130.486 181.847 134.802 186.291C139.182 190.734 145.498 192.956 153.75 192.956C161.304 192.956 167.397 190.575 172.031 185.814C176.729 181.054 179.109 174.389 179.172 165.819V67.3672Z" fill="#00A1D4"/>
<path d="M169 423.434C149.694 392.659 129.383 362.748 104 337.197C129.383 311.647 149.694 281.736 169 250.961C188.306 281.736 208.617 311.647 234 337.197C208.617 362.748 188.306 392.659 169 423.434Z" fill="#00A1D4"/>
</svg>
