<svg width="338" height="472" viewBox="0 0 338 472" fill="none" xmlns="http://www.w3.org/2000/svg">
<rect x="0.375" y="0.375" width="337.25" height="471.25" rx="15.655" fill="white" stroke="black" stroke-width="0.75"/>
<path d="M179.172 67.3672H197.549V165.534C197.549 178.8 193.55 189.179 185.552 196.669C177.617 204.159 167.017 207.904 153.75 207.904C139.976 207.904 129.248 204.381 121.567 197.335C113.887 190.29 110.046 180.419 110.046 167.724H128.328C128.328 175.658 130.486 181.847 134.802 186.291C139.182 190.734 145.498 192.956 153.75 192.956C161.304 192.956 167.397 190.575 172.031 185.814C176.729 181.054 179.109 174.389 179.172 165.819V67.3672Z" fill="#D40000"/>
<path d="M169 424.006C169 424.006 152.933 398.562 131.259 368.647C116.759 348.629 105.167 326.952 104.089 308.281C102.853 286.953 114.554 265.555 135.737 264.518C156.908 263.482 165.502 280.964 169 295.376C172.498 280.963 181.092 263.482 202.263 264.518C223.446 265.555 235.147 286.953 233.911 308.281C232.833 326.952 221.241 348.629 206.741 368.647C185.067 398.562 169 424.006 169 424.006Z" fill="#D40000"/>
</svg>
