<svg width="338" height="472" viewBox="0 0 338 472" fill="none" xmlns="http://www.w3.org/2000/svg">
<rect x="0.375" y="0.375" width="337.25" height="471.25" rx="15.655" fill="white" stroke="black" stroke-width="0.75"/>
<path d="M179.172 67.3672H197.549V165.534C197.549 178.8 193.55 189.179 185.552 196.669C177.617 204.159 167.017 207.904 153.75 207.904C139.976 207.904 129.248 204.381 121.567 197.335C113.887 190.29 110.046 180.419 110.046 167.724H128.328C128.328 175.658 130.486 181.847 134.802 186.291C139.182 190.734 145.498 192.956 153.75 192.956C161.304 192.956 167.397 190.575 172.031 185.814C176.729 181.054 179.109 174.389 179.172 165.819V67.3672Z" fill="black"/>
<path d="M169 250.961C137.868 293.815 104.558 318.475 104.004 351.908C103.819 362.734 109.883 381.135 128.877 384.657C141.2 386.932 158.167 377.304 158.521 357.746C158.467 353.852 162.793 353.953 162.752 359.289C162.172 374.716 157.112 392.678 148.609 407.3C162.203 407.3 175.797 407.3 189.391 407.3C180.888 392.678 175.828 374.716 175.248 359.289C175.207 353.953 179.533 353.852 179.479 357.746C179.833 377.304 196.8 386.932 209.123 384.657C228.117 381.135 234.181 362.734 233.996 351.908C233.442 318.475 200.132 293.815 169 250.961Z" fill="black"/>
</svg>
