<svg width="338" height="472" viewBox="0 0 338 472" fill="none" xmlns="http://www.w3.org/2000/svg">
<rect x="0.375" y="0.375" width="337.25" height="471.25" rx="15.655" fill="white" stroke="black" stroke-width="0.75"/>
<path d="M156.321 141.54L139.373 159.154V206H121.091V67.3672H139.373V135.922L200.977 67.3672H223.066L168.508 128.59L227.351 206H205.452L156.321 141.54Z" fill="black"/>
<path d="M169 250.961C137.868 293.815 104.558 318.475 104.004 351.908C103.819 362.734 109.883 381.135 128.877 384.657C141.2 386.932 158.167 377.304 158.521 357.746C158.467 353.852 162.793 353.953 162.752 359.289C162.172 374.716 157.112 392.678 148.609 407.3C162.203 407.3 175.797 407.3 189.391 407.3C180.888 392.678 175.828 374.716 175.248 359.289C175.207 353.953 179.533 353.852 179.479 357.746C179.833 377.304 196.8 386.932 209.123 384.657C228.117 381.135 234.181 362.734 233.996 351.908C233.442 318.475 200.132 293.815 169 250.961Z" fill="black"/>
</svg>
