<svg width="338" height="472" viewBox="0 0 338 472" fill="none" xmlns="http://www.w3.org/2000/svg">
<rect x="0.375" y="0.375" width="337.25" height="471.25" rx="15.655" fill="white" stroke="black" stroke-width="0.75"/>
<path d="M168.989 273.162C140.625 273.755 127.906 304.541 148.913 328.447C151.959 331.934 152.273 333.936 146.694 330.586C132.551 321.469 105.432 327.462 104.043 355.336C102.328 389.679 152.106 399.574 161.452 363.055C161.946 359.202 165.194 359.29 164.411 364.759C163.619 378.549 159.413 391.501 153.521 404.117C152.896 405.457 153.864 407.007 155.343 407.007C164.451 407.007 174.181 407.007 182.658 407.007C184.137 407.007 185.104 405.457 184.479 404.117C178.587 391.501 174.381 378.549 173.589 364.759C172.806 359.29 176.054 359.202 176.548 363.055C185.894 399.574 235.672 389.679 233.957 355.336C232.568 327.462 205.449 321.469 191.306 330.586C185.726 333.936 186.041 331.934 189.087 328.447C210.087 304.549 197.384 273.777 169.041 273.162C169.025 273.162 168.999 273.162 168.983 273.162H168.989Z" fill="#40C61E"/>
<path d="M226.97 141.159C226.97 154.552 224.844 166.105 220.591 175.817C216.338 185.465 210.371 193.019 202.69 198.478L227.446 217.902L214.973 229.423L185.742 206.19C181.172 207.333 176.348 207.904 171.27 207.904C160.352 207.904 150.671 205.238 142.229 199.906C133.787 194.511 127.217 186.862 122.52 176.959C117.886 166.994 115.505 155.473 115.378 142.396V132.399C115.378 119.069 117.695 107.294 122.329 97.0742C126.963 86.8545 133.501 79.0469 141.943 73.6514C150.449 68.1924 160.161 65.4629 171.079 65.4629C182.251 65.4629 192.058 68.1606 200.5 73.5562C209.006 78.9517 215.544 86.7275 220.115 96.8838C224.685 106.977 226.97 118.783 226.97 132.304V141.159ZM208.689 132.208C208.689 115.895 205.42 103.327 198.882 94.5034C192.407 85.6167 183.14 81.1733 171.079 81.1733C159.59 81.1733 150.513 85.585 143.848 94.4082C137.246 103.168 133.85 115.355 133.66 130.971V141.159C133.66 157.028 136.96 169.533 143.562 178.673C150.227 187.814 159.463 192.384 171.27 192.384C183.076 192.384 192.217 188.1 198.691 179.53C205.166 170.897 208.499 158.551 208.689 142.492V132.208Z" fill="#40C61E"/>
</svg>
