<svg width="338" height="472" viewBox="0 0 338 472" fill="none" xmlns="http://www.w3.org/2000/svg">
<rect x="0.375" y="0.375" width="337.25" height="471.25" rx="15.655" fill="white" stroke="black" stroke-width="0.75"/>
<path d="M226.97 141.159C226.97 154.552 224.844 166.105 220.591 175.817C216.338 185.465 210.371 193.019 202.69 198.478L227.446 217.902L214.973 229.423L185.742 206.19C181.172 207.333 176.348 207.904 171.27 207.904C160.352 207.904 150.671 205.238 142.229 199.906C133.787 194.511 127.217 186.862 122.52 176.959C117.886 166.994 115.505 155.473 115.378 142.396V132.399C115.378 119.069 117.695 107.294 122.329 97.0742C126.963 86.8545 133.501 79.0469 141.943 73.6514C150.449 68.1924 160.161 65.4629 171.079 65.4629C182.251 65.4629 192.058 68.1606 200.5 73.5562C209.006 78.9517 215.544 86.7275 220.115 96.8838C224.685 106.977 226.97 118.783 226.97 132.304V141.159ZM208.689 132.208C208.689 115.895 205.42 103.327 198.882 94.5034C192.407 85.6167 183.14 81.1733 171.079 81.1733C159.59 81.1733 150.513 85.585 143.848 94.4082C137.246 103.168 133.85 115.355 133.66 130.971V141.159C133.66 157.028 136.96 169.533 143.562 178.673C150.227 187.814 159.463 192.384 171.27 192.384C183.076 192.384 192.217 188.1 198.691 179.53C205.166 170.897 208.499 158.551 208.689 142.492V132.208Z" fill="#D40000"/>
<path d="M169 424.006C169 424.006 152.933 398.562 131.259 368.647C116.759 348.629 105.167 326.952 104.089 308.281C102.853 286.953 114.554 265.555 135.737 264.518C156.908 263.482 165.502 280.964 169 295.376C172.498 280.963 181.092 263.482 202.263 264.518C223.446 265.555 235.147 286.953 233.911 308.281C232.833 326.952 221.241 348.629 206.741 368.647C185.067 398.562 169 424.006 169 424.006Z" fill="#D40000"/>
</svg>
